<?xml version="1.0" standalone="no"?>
<!DOCTYPE svg PUBLIC "-//W3C//DTD SVG 20010904//EN"
 "http://www.w3.org/TR/2001/REC-SVG-20010904/DTD/svg10.dtd">
<svg version="1.0" xmlns="http://www.w3.org/2000/svg"
 width="450.000000pt" height="253.000000pt" viewBox="0 0 450.000000 253.000000"
 preserveAspectRatio="xMidYMid meet">

<g transform="translate(0.000000,253.000000) scale(0.100000,-0.100000)"
fill="#000000" stroke="none">
<path d="M0 1265 l0 -1265 2250 0 2250 0 0 1265 0 1265 -1164 0 c-640 0 -1171
-3 -1180 -6 -9 -3 -16 -11 -16 -16 0 -6 7 -8 15 -4 10 4 22 -9 39 -42 22 -44
23 -49 8 -60 -15 -11 -15 -12 4 -7 27 7 40 -20 22 -43 -11 -13 -10 -15 4 -9
22 8 46 -52 26 -65 -21 -13 -24 -10 -41 34 -16 38 -15 42 1 54 9 7 14 14 10
14 -9 0 -179 -97 -192 -110 -5 -5 -1 -29 8 -56 19 -57 19 -51 0 -58 -15 -6
-15 -4 -3 11 12 15 12 16 -3 11 -21 -9 -33 19 -16 40 11 13 10 14 -2 10 -10
-3 -21 6 -31 26 -16 28 -16 31 0 44 14 12 13 12 -6 7 -14 -4 -23 -2 -23 4 0 6
5 11 10 11 6 0 10 4 10 10 0 5 -8 6 -17 3 -16 -6 -17 -5 -3 12 14 17 13 18 -3
12 -12 -5 -17 -3 -15 5 10 28 29 16 53 -32 l26 -51 47 27 c83 48 112 69 112
79 0 6 -15 39 -34 75 -29 56 -38 65 -64 68 -29 3 -84 -24 -135 -67 -16 -13
-16 -16 -1 -39 13 -20 14 -26 3 -33 -20 -12 -26 -11 -33 7 -4 9 -1 23 6 32 11
13 10 14 -10 8 -13 -5 -22 -3 -22 3 0 6 5 11 10 11 6 0 10 5 10 11 0 6 -7 8
-16 5 -23 -9 -46 24 -31 43 10 12 9 14 -5 8 -10 -3 -20 -2 -23 3 -4 6 -350 10
-921 10 l-914 0 0 -1265z m2280 995 c0 -5 -6 -10 -14 -10 -9 0 -12 -7 -9 -21
4 -13 11 -18 22 -15 13 5 12 3 -2 -8 -13 -10 -15 -15 -5 -19 7 -2 1 -4 -14 -3
-20 1 -24 4 -16 13 6 7 7 24 4 37 -4 15 -1 26 7 29 20 9 27 8 27 -3z m-649
-156 c-9 -7 -13 -16 -9 -20 4 -4 14 -2 22 5 11 10 16 3 26 -38 13 -56 31 -76
57 -67 11 4 8 -1 -7 -14 -14 -11 -31 -20 -37 -20 -7 0 -13 -4 -13 -10 0 -13 1
-13 38 5 31 16 32 15 119 -40 48 -30 90 -54 93 -53 44 21 180 94 180 98 0 3
-38 32 -85 65 -73 52 -81 61 -63 68 12 4 23 5 26 2 3 -3 0 -5 -6 -5 -7 0 -12
-4 -12 -10 0 -5 7 -10 15 -10 8 0 15 5 15 11 0 5 5 7 11 3 8 -4 7 -9 -2 -15
-7 -4 -10 -11 -6 -15 3 -4 13 -1 21 5 10 8 16 9 21 1 3 -5 1 -10 -4 -10 -6 0
-11 -4 -11 -10 0 -5 7 -10 15 -10 8 0 15 5 15 11 0 5 5 7 10 4 8 -5 7 -11 -1
-21 -7 -9 -8 -14 -1 -14 6 0 12 5 14 10 2 6 41 -14 88 -45 53 -34 77 -55 65
-55 -16 0 -17 -2 -5 -10 9 -5 19 -5 27 2 8 6 16 8 19 5 3 -3 -3 -10 -13 -16
-15 -7 -32 -4 -74 16 -31 14 -48 28 -40 30 7 3 16 1 20 -5 4 -7 12 -8 21 -2
13 8 12 10 -2 10 -10 0 -18 5 -18 11 0 5 -49 -16 -110 -47 -60 -31 -110 -60
-110 -64 0 -4 24 -19 53 -33 47 -24 48 -29 2 -29 -30 0 -34 2 -28 20 6 15 5
15 -10 3 -14 -11 -20 -11 -32 -1 -8 7 -12 17 -9 22 4 6 -2 7 -17 3 -22 -7 -23
-7 -9 10 14 16 13 17 -7 11 -15 -5 -31 -2 -45 8 -12 9 -17 16 -10 16 6 0 12 5
12 10 0 6 -12 8 -27 5 -16 -3 -22 -2 -15 1 23 11 12 24 -15 19 -16 -3 -22 -2
-15 1 21 10 13 26 -10 19 -16 -4 -19 -3 -9 3 9 7 10 11 2 17 -7 4 -18 1 -26
-5 -11 -9 -12 -17 -4 -33 9 -16 8 -22 -5 -29 -9 -5 -16 -13 -16 -18 0 -14 28
-12 32 2 3 7 7 2 10 -10 4 -12 3 -20 -1 -18 -12 8 -34 -11 -26 -23 5 -9 10 -9
21 0 23 19 30 1 7 -20 -20 -19 -21 -19 -39 20 -21 49 -27 48 -142 -17 -73 -41
-83 -51 -79 -71 2 -13 0 -23 -4 -23 -5 0 -9 -4 -9 -10 0 -5 7 -10 15 -10 8 0
15 -4 15 -9 0 -6 20 -24 45 -42 41 -29 43 -33 27 -45 -16 -12 -16 -13 0 -14 9
0 20 5 23 10 4 6 11 8 16 4 6 -4 6 -11 -2 -20 -16 -19 -5 -29 12 -11 12 12 20
10 62 -16 34 -21 45 -32 36 -38 -8 -4 -10 -11 -6 -15 3 -4 13 -2 21 5 10 9 20
9 40 0 14 -7 26 -16 26 -21 0 -5 -4 -7 -8 -4 -4 2 -14 1 -22 -4 -9 -5 -28 -3
-49 6 -35 15 -38 14 -138 -32 -57 -26 -103 -51 -103 -56 0 -5 12 -13 28 -19
25 -10 26 -12 7 -19 -29 -12 -37 -12 -29 1 4 8 -1 9 -17 4 -21 -7 -22 -6 -10
9 12 14 11 16 -8 16 -11 0 -21 -4 -21 -10 0 -5 -8 -6 -17 -3 -11 4 -12 8 -5
11 22 7 12 22 -11 17 -15 -4 -37 2 -61 15 -29 18 -34 25 -25 36 9 11 8 14 -5
14 -9 0 -16 -5 -16 -11 0 -8 -5 -7 -15 1 -13 10 -13 15 -3 21 7 4 9 11 5 15
-3 4 -13 1 -21 -5 -8 -7 -20 -10 -26 -6 -8 5 -5 12 7 22 17 13 15 14 -14 9
-18 -3 -35 -1 -38 4 -3 6 2 10 11 10 14 0 15 3 6 12 -8 8 -15 8 -25 0 -19 -16
-30 -3 -14 16 10 13 8 14 -15 9 -27 -7 -49 7 -26 16 7 2 9 8 5 13 -4 4 -16 3
-26 -3 -22 -14 -35 -5 -20 13 14 17 -7 29 -26 14 -9 -7 -15 -8 -20 0 -3 5 -1
10 4 10 6 0 11 5 11 11 0 7 -12 8 -32 4 -22 -4 -28 -3 -19 3 7 5 10 15 6 22
-8 12 38 -11 125 -64 32 -20 61 -31 70 -27 57 23 190 105 187 114 -2 7 -42 39
-89 72 -81 56 -85 60 -66 73 10 8 22 11 26 7 3 -3 0 -10 -8 -15 -8 -5 -11 -12
-7 -17 4 -4 16 -3 25 3 25 16 48 6 25 -11 -24 -18 -8 -33 18 -17 25 16 46 5
23 -12 -13 -10 -14 -15 -4 -21 8 -5 17 -2 24 7 10 13 16 12 46 -8 39 -27 70
-31 70 -10 0 9 -8 13 -22 9 -21 -4 -22 -3 -5 10 23 19 22 31 -3 24 -13 -3 -20
0 -20 9 0 8 5 14 10 14 6 0 10 5 10 10 0 6 -7 10 -16 8 -10 -2 -19 3 -21 10
-3 7 1 11 7 10 7 -2 15 3 17 11 4 9 0 11 -16 6 -26 -8 -27 3 -3 22 16 13 16
13 -2 11 -10 -2 -21 3 -23 10 -3 6 2 12 11 12 9 0 16 5 16 11 0 6 -9 8 -20 4
-23 -7 -28 10 -5 19 8 3 15 11 15 17 0 8 -4 8 -15 -1 -12 -10 -15 -10 -15 4 0
9 5 16 10 16 6 0 10 5 10 11 0 6 -7 9 -15 5 -11 -4 -15 1 -15 18 0 13 8 27 17
30 12 5 14 9 6 14 -9 6 -7 11 6 19 16 10 17 8 13 -13 -5 -29 9 -31 46 -6 15
11 54 37 87 58 48 32 61 46 63 69 2 17 11 36 20 43 15 12 18 7 23 -45 6 -47 4
-60 -10 -69z m589 71 c0 -2 -22 -16 -50 -30 -27 -14 -50 -23 -50 -20 0 2 21
16 48 29 53 28 52 28 52 21z m-143 -52 c13 -28 8 -47 -6 -24 -6 8 -14 10 -22
5 -12 -6 -12 -5 0 9 9 12 10 17 2 17 -7 0 -9 5 -6 10 10 16 19 11 32 -17z
m-147 -28 c0 -2 -19 -14 -42 -26 -46 -23 -46 -17 -1 12 29 18 43 23 43 14z
m160 -45 c0 -5 -5 -10 -11 -10 -5 0 -7 5 -4 10 3 6 8 10 11 10 2 0 4 -4 4 -10z
m-270 -15 c0 -2 -10 -9 -22 -15 -22 -11 -22 -10 -4 4 21 17 26 19 26 11z
m-996 -140 c-10 -8 -23 -15 -28 -15 -6 0 -1 7 10 15 10 8 23 15 28 15 6 0 1
-7 -10 -15z m-24 -29 c0 -2 -11 -6 -25 -8 -13 -3 -22 -1 -19 3 5 9 44 13 44 5z
m350 -14 c0 -5 -11 -14 -25 -20 -39 -18 -44 -14 -10 7 36 23 35 23 35 13z m61
-17 c-12 -6 -19 -14 -16 -18 2 -4 0 -3 -6 2 -15 12 10 41 30 33 10 -4 8 -8 -8
-17z m-436 5 c-3 -5 -12 -10 -20 -10 -8 0 -17 -5 -21 -12 -4 -7 -3 -8 4 -4 7
4 12 2 12 -3 0 -6 -9 -11 -20 -11 -11 0 -20 -4 -20 -10 0 -5 7 -7 15 -4 11 5
9 -7 -8 -53 -19 -50 -22 -77 -21 -193 1 -117 6 -151 32 -250 78 -295 234 -617
452 -935 34 -49 53 -82 43 -73 -12 11 -28 15 -43 12 -53 -12 -53 -12 -35 -40
9 -14 15 -27 13 -29 -7 -7 -125 162 -202 287 -23 39 -48 37 -281 -31 -190 -55
-200 -60 -203 -84 -3 -24 16 -73 85 -226 13 -29 21 -56 18 -59 -3 -3 -5 0 -5
7 0 9 -14 12 -47 9 -47 -3 -47 -3 -70 42 -105 211 -192 513 -224 770 -14 114
-5 349 16 435 26 106 56 175 76 175 10 0 21 5 25 12 5 7 0 9 -14 6 -15 -4 -19
-2 -15 8 3 8 13 14 23 14 11 0 22 5 26 12 5 8 2 9 -9 5 -10 -3 -17 -3 -17 2 0
5 12 12 28 17 23 6 24 8 7 12 -17 4 -15 6 10 17 17 8 24 14 18 14 -7 1 -13 6
-13 12 0 7 11 9 30 6 47 -10 235 66 281 114 20 20 45 39 55 42 11 3 20 5 22 6
2 0 0 -3 -3 -9z m990 -88 c-8 -2 -15 -9 -15 -15 0 -8 -4 -7 -12 1 -9 9 -8 15
7 26 15 11 22 11 27 3 4 -7 1 -13 -7 -15z m-1292 -22 c-20 -22 -40 -37 -45
-34 -12 8 0 24 19 24 9 0 14 3 10 6 -3 4 4 15 16 25 37 31 37 21 0 -21z m1317
-10 c0 -5 -5 -10 -11 -10 -5 0 -7 5 -4 10 3 6 8 10 11 10 2 0 4 -4 4 -10z
m-845 -40 c-3 -5 -12 -10 -18 -10 -7 0 -6 4 3 10 19 12 23 12 15 0z m45 -19
c0 -5 -7 -11 -14 -14 -10 -4 -13 -1 -9 9 6 15 23 19 23 5z"/>
<path d="M1619 2208 c-6 -13 -5 -88 2 -88 12 0 20 18 10 24 -4 3 -7 19 -5 36
3 24 -1 40 -7 28z"/>
<path d="M1505 2069 c-103 -63 -105 -66 -90 -132 21 -89 48 -167 59 -167 17 0
196 103 196 113 0 18 -73 237 -79 236 -3 0 -42 -23 -86 -50z"/>
<path d="M1637 2063 c-12 -12 -7 -22 8 -17 8 4 15 10 15 15 0 11 -14 12 -23 2z"/>
<path d="M1377 2023 c-4 -3 -7 -11 -7 -17 0 -6 5 -5 12 2 6 6 9 14 7 17 -3 3
-9 2 -12 -2z"/>
<path d="M1645 2020 c-3 -5 1 -10 9 -10 9 0 16 5 16 10 0 6 -4 10 -9 10 -6 0
-13 -4 -16 -10z"/>
<path d="M1660 1979 c0 -5 5 -7 10 -4 6 3 10 8 10 11 0 2 -4 4 -10 4 -5 0 -10
-5 -10 -11z"/>
<path d="M2115 1970 c-3 -5 1 -10 10 -10 9 0 13 5 10 10 -3 6 -8 10 -10 10 -2
0 -7 -4 -10 -10z"/>
<path d="M2185 1920 c-3 -5 -2 -10 4 -10 5 0 13 5 16 10 3 6 2 10 -4 10 -5 0
-13 -4 -16 -10z"/>
<path d="M1687 1913 c-12 -11 -8 -23 8 -23 8 0 15 7 15 15 0 16 -12 20 -23 8z"/>
<path d="M1850 1860 c0 -5 5 -10 10 -10 6 0 10 5 10 10 0 6 -4 10 -10 10 -5 0
-10 -4 -10 -10z"/>
<path d="M1930 1809 c0 -5 5 -7 10 -4 6 3 10 8 10 11 0 2 -4 4 -10 4 -5 0 -10
-5 -10 -11z"/>
<path d="M1367 1724 c-4 -4 -4 -10 -1 -15 6 -10 34 0 34 12 0 10 -24 12 -33 3z"/>
<path d="M1405 1690 c-3 -5 3 -10 14 -10 12 0 21 5 21 10 0 6 -6 10 -14 10 -8
0 -18 -4 -21 -10z"/>
<path d="M1440 1660 c0 -5 4 -10 9 -10 6 0 13 5 16 10 3 6 -1 10 -9 10 -9 0
-16 -4 -16 -10z"/>
<path d="M1315 1599 c-49 -28 -94 -55 -98 -59 -5 -4 32 -33 82 -65 80 -52 88
-60 73 -71 -9 -8 -12 -14 -6 -14 5 0 15 5 21 11 8 8 17 8 33 -1 19 -10 36 -5
126 39 57 27 104 54 104 58 0 4 -19 19 -41 33 -23 14 -71 46 -107 73 -37 26
-73 47 -82 47 -8 0 -55 -23 -105 -51z"/>
<path d="M1490 1640 c-12 -8 -10 -10 8 -10 13 0 20 4 17 10 -7 12 -6 12 -25 0z"/>
<path d="M1527 1614 c-11 -11 3 -24 18 -18 8 4 12 10 9 15 -6 11 -18 12 -27 3z"/>
<path d="M1630 1530 c0 -5 4 -10 9 -10 6 0 13 5 16 10 3 6 -1 10 -9 10 -9 0
-16 -4 -16 -10z"/>
<path d="M1665 1510 c-3 -5 1 -10 9 -10 8 0 18 5 21 10 3 6 -1 10 -9 10 -8 0
-18 -4 -21 -10z"/>
<path d="M1748 1473 c7 -3 16 -2 19 1 4 3 -2 6 -13 5 -11 0 -14 -3 -6 -6z"/>
<path d="M1330 1420 c0 -5 4 -10 9 -10 6 0 13 5 16 10 3 6 -1 10 -9 10 -9 0
-16 -4 -16 -10z"/>
<path d="M695 1760 c-3 -5 -2 -10 4 -10 5 0 13 5 16 10 3 6 2 10 -4 10 -5 0
-13 -4 -16 -10z"/>
<path d="M565 1713 c-170 -67 -162 -62 -190 -118 -28 -58 -65 -161 -65 -182 0
-7 5 -13 11 -13 16 0 282 100 293 110 5 5 11 31 13 57 4 43 23 126 39 168 8
21 2 19 -101 -22z"/>
<path d="M675 1730 c-3 -5 1 -10 9 -10 8 0 18 5 21 10 3 6 -1 10 -9 10 -8 0
-18 -4 -21 -10z"/>
<path d="M670 1700 c-8 -5 -12 -12 -9 -15 8 -8 39 5 39 16 0 11 -11 11 -30 -1z"/>
<path d="M660 1660 c-8 -5 -12 -12 -9 -15 8 -8 39 5 39 16 0 11 -11 11 -30 -1z"/>
<path d="M657 1623 c-12 -12 -7 -22 8 -17 8 4 15 10 15 15 0 11 -14 12 -23 2z"/>
<path d="M650 1580 c-8 -5 -12 -12 -9 -15 8 -8 39 5 39 16 0 11 -11 11 -30 -1z"/>
<path d="M650 1540 c-8 -5 -11 -12 -8 -16 10 -9 38 3 38 16 0 12 -10 13 -30 0z"/>
<path d="M300 1520 c0 -5 4 -10 9 -10 6 0 13 5 16 10 3 6 -1 10 -9 10 -9 0
-16 -4 -16 -10z"/>
<path d="M658 1502 c-10 -2 -18 -10 -18 -18 0 -16 9 -18 29 -5 18 12 10 28
-11 23z"/>
<path d="M285 1479 c-11 -17 0 -20 21 -4 17 13 17 14 2 15 -9 0 -20 -5 -23
-11z"/>
<path d="M590 1473 c-154 -54 -268 -98 -280 -110 -12 -11 -15 -44 -15 -173 0
-108 4 -163 12 -171 9 -9 51 2 178 47 92 31 173 63 180 70 11 11 10 26 -6 86
-10 40 -21 104 -24 143 -10 117 -11 120 -45 108z"/>
<path d="M657 1449 c-17 -10 -23 -29 -9 -29 5 0 16 6 27 13 22 17 7 29 -18 16z"/>
<path d="M280 1440 c-8 -5 -11 -12 -7 -16 4 -4 13 -2 19 4 15 15 7 24 -12 12z"/>
<path d="M271 1401 c-7 -5 -12 -14 -10 -20 3 -6 9 -7 18 -2 7 5 12 14 10 20
-3 6 -9 7 -18 2z"/>
<path d="M668 1402 c-10 -2 -18 -10 -18 -18 0 -16 9 -18 29 -5 18 12 10 28
-11 23z"/>
<path d="M263 1353 c-7 -2 -13 -11 -13 -19 0 -12 4 -12 20 -4 32 17 26 37 -7
23z"/>
<path d="M678 1352 c-22 -4 -24 -32 -3 -32 9 0 18 7 22 15 7 19 3 22 -19 17z"/>
<path d="M258 1302 c-10 -2 -18 -10 -18 -18 0 -16 9 -18 29 -5 18 12 10 28
-11 23z"/>
<path d="M673 1285 c-8 -21 -2 -24 25 -14 13 5 20 13 17 19 -9 15 -35 12 -42
-5z"/>
<path d="M237 1243 c-12 -11 -8 -23 7 -23 7 0 19 7 26 15 10 12 9 15 -7 15
-11 0 -23 -3 -26 -7z"/>
<path d="M698 1239 c-25 -14 -23 -38 2 -32 11 3 23 10 26 15 10 16 -10 28 -28
17z"/>
<path d="M237 1193 c-15 -14 -6 -31 13 -26 11 3 20 12 20 19 0 14 -22 19 -33
7z"/>
<path d="M713 1179 c-15 -5 -21 -13 -17 -24 4 -9 13 -14 21 -11 8 3 19 6 24 6
11 0 12 27 2 33 -5 3 -18 1 -30 -4z"/>
<path d="M248 1142 c-22 -4 -24 -32 -3 -32 9 0 18 7 22 15 7 19 3 22 -19 17z"/>
<path d="M720 1110 c-11 -7 -12 -12 -3 -21 14 -14 53 -2 53 17 0 16 -28 18
-50 4z"/>
<path d="M248 1083 c-10 -2 -18 -11 -18 -19 0 -22 44 -14 48 9 4 17 1 18 -30
10z"/>
<path d="M492 1035 c-84 -29 -160 -59 -168 -66 -19 -16 -13 -67 27 -229 37
-152 72 -251 91 -264 12 -7 51 0 145 28 246 72 295 89 300 103 3 8 -21 69 -53
136 -32 67 -77 172 -99 232 -36 97 -44 110 -65 112 -14 1 -94 -22 -178 -52z"/>
<path d="M758 1053 c-10 -2 -18 -14 -18 -25 0 -16 5 -19 23 -14 12 3 25 6 29
6 3 0 4 9 1 20 -3 11 -8 19 -12 19 -3 -1 -14 -3 -23 -6z"/>
<path d="M253 1020 c-14 -6 -21 -15 -17 -24 8 -20 44 -8 44 15 0 11 -1 19 -2
18 -2 0 -13 -4 -25 -9z"/>
<path d="M782 979 c-28 -11 -24 -33 6 -37 13 -2 25 3 28 13 9 23 -7 34 -34 24z"/>
<path d="M253 953 c-7 -2 -13 -11 -13 -20 0 -21 44 -13 48 10 3 17 -10 21 -35
10z"/>
<path d="M802 902 c-7 -5 -10 -16 -6 -25 7 -20 6 -20 38 -7 17 6 24 14 20 25
-7 16 -31 20 -52 7z"/>
<path d="M257 883 c-16 -15 -6 -34 15 -31 29 4 38 38 10 38 -10 0 -22 -3 -25
-7z"/>
<path d="M853 832 c-23 -3 -32 -35 -15 -46 17 -10 52 7 52 25 0 22 -8 26 -37
21z"/>
<path d="M271 811 c-9 -6 -10 -14 -5 -24 12 -20 56 -4 48 18 -7 17 -22 19 -43
6z"/>
<path d="M298 743 c-10 -2 -18 -13 -18 -24 0 -30 44 -22 48 9 3 22 1 23 -30
15z"/>
<path d="M874 735 c-8 -19 3 -35 24 -35 27 0 43 15 36 33 -8 21 -53 22 -60 2z"/>
<path d="M313 663 c-7 -2 -13 -14 -13 -25 0 -29 44 -21 48 10 3 22 -8 27 -35
15z"/>
<path d="M941 661 c-30 -8 -37 -24 -16 -41 15 -12 65 -6 65 8 0 21 -26 39 -49
33z"/>
<path d="M320 561 c0 -11 5 -23 10 -26 18 -11 50 6 50 26 0 14 -7 19 -30 19
-23 0 -30 -5 -30 -19z"/>
<path d="M982 570 c-19 -8 -21 -13 -12 -30 11 -21 36 -26 59 -11 10 7 11 13 2
30 -13 23 -16 24 -49 11z"/>
<path d="M367 493 c-22 -6 -19 -47 3 -50 26 -5 43 13 35 36 -3 11 -9 20 -13
20 -4 -1 -15 -3 -25 -6z"/>
<path d="M1043 479 c-26 -9 -30 -31 -9 -48 15 -12 66 1 66 17 0 21 -35 40 -57
31z"/>
<path d="M397 403 c-25 -6 -18 -47 8 -51 33 -4 49 12 36 37 -7 11 -15 20 -19
20 -4 -1 -15 -3 -25 -6z"/>
<path d="M1088 383 c-22 -6 -22 -12 0 -39 15 -19 21 -20 50 -10 31 11 32 12
17 34 -16 21 -31 25 -67 15z"/>
<path d="M442 311 c-27 -7 -28 -9 -20 -38 5 -18 10 -21 34 -14 33 8 39 21 22
42 -8 11 -21 14 -36 10z"/>
<path d="M468 213 c-10 -2 -18 -7 -18 -9 0 -5 19 -45 25 -52 1 -1 16 3 33 9
28 10 30 13 20 35 -11 23 -23 27 -60 17z"/>
<path d="M1885 2520 c4 -6 1 -17 -5 -25 -9 -11 -9 -15 -1 -15 6 0 11 6 11 13
1 7 6 4 15 -6 13 -18 15 -18 59 8 25 15 46 29 46 31 0 2 -30 4 -66 4 -43 0
-63 -4 -59 -10z"/>
<path d="M2155 2480 c-3 -5 -1 -10 4 -10 6 0 11 5 11 10 0 6 -2 10 -4 10 -3 0
-8 -4 -11 -10z"/>
<path d="M2170 2449 c0 -5 5 -7 10 -4 6 3 10 8 10 11 0 2 -4 4 -10 4 -5 0 -10
-5 -10 -11z"/>
<path d="M2180 2419 c0 -5 5 -7 10 -4 6 3 10 8 10 11 0 2 -4 4 -10 4 -5 0 -10
-5 -10 -11z"/>
<path d="M1925 2410 c-3 -5 -1 -10 4 -10 6 0 11 5 11 10 0 6 -2 10 -4 10 -3 0
-8 -4 -11 -10z"/>
<path d="M2230 2319 c0 -5 5 -7 10 -4 6 3 10 8 10 11 0 2 -4 4 -10 4 -5 0 -10
-5 -10 -11z"/>
<path d="M2240 2289 c0 -5 5 -7 10 -4 6 3 10 8 10 11 0 2 -4 4 -10 4 -5 0 -10
-5 -10 -11z"/>
<path d="M1990 2269 c0 -5 5 -7 10 -4 6 3 10 8 10 11 0 2 -4 4 -10 4 -5 0 -10
-5 -10 -11z"/>
<path d="M2005 2250 c-3 -5 -1 -10 4 -10 6 0 11 5 11 10 0 6 -2 10 -4 10 -3 0
-8 -4 -11 -10z"/>
<path d="M2025 2200 c-3 -5 -1 -10 4 -10 6 0 11 5 11 10 0 6 -2 10 -4 10 -3 0
-8 -4 -11 -10z"/>
</g>
</svg>
